<svg xmlns="http://www.w3.org/2000/svg" viewBox="0 0 500 500"><g id="freepik--background-complete--inject-61"><rect y="382.4" width="500" height="0.25" style="fill:#ebebeb"></rect><rect x="416.78" y="398.49" width="33.12" height="0.25" style="fill:#ebebeb"></rect><rect x="322.53" y="401.21" width="8.69" height="0.25" style="fill:#ebebeb"></rect><rect x="396.59" y="389.21" width="19.19" height="0.25" style="fill:#ebebeb"></rect><rect x="52.46" y="390.89" width="43.19" height="0.25" style="fill:#ebebeb"></rect><rect x="104.56" y="390.89" width="6.33" height="0.25" style="fill:#ebebeb"></rect><rect x="131.47" y="395.11" width="93.68" height="0.25" style="fill:#ebebeb"></rect><path d="M237,337.8H43.91a5.71,5.71,0,0,1-5.7-5.71V60.66A5.71,5.71,0,0,1,43.91,55H237a5.71,5.71,0,0,1,5.71,5.71V332.09A5.71,5.71,0,0,1,237,337.8ZM43.91,55.2a5.46,5.46,0,0,0-5.45,5.46V332.09a5.46,5.46,0,0,0,5.45,5.46H237a5.47,5.47,0,0,0,5.46-5.46V60.66A5.47,5.47,0,0,0,237,55.2Z" style="fill:#ebebeb"></path><path d="M453.31,337.8H260.21a5.72,5.72,0,0,1-5.71-5.71V60.66A5.72,5.72,0,0,1,260.21,55h193.1A5.71,5.71,0,0,1,459,60.66V332.09A5.71,5.71,0,0,1,453.31,337.8ZM260.21,55.2a5.47,5.47,0,0,0-5.46,5.46V332.09a5.47,5.47,0,0,0,5.46,5.46h193.1a5.47,5.47,0,0,0,5.46-5.46V60.66a5.47,5.47,0,0,0-5.46-5.46Z" style="fill:#ebebeb"></path><rect x="69.79" y="192.39" width="72.46" height="90.96" style="fill:#f5f5f5"></rect><rect x="360.96" y="192.39" width="72.46" height="90.96" style="fill:#f5f5f5"></rect><rect x="69.79" y="97.6" width="72.46" height="90.53" style="fill:#f5f5f5"></rect><rect x="360.96" y="97.6" width="72.46" height="90.53" style="fill:#f5f5f5"></rect><rect x="147.54" y="97.08" width="208.12" height="55.92" style="fill:#f5f5f5"></rect><path d="M123.54,148.27c2.54-5.1,2.06-11.8,1.89-13.42v-.06c0-.09,0-.16,0-.21v-.11a61.09,61.09,0,0,0-13-3.28h0V125H99.09v6h0a40,40,0,0,0-12.71,3.4l0,0s0,16.4,9.2,22l-2.19,5.9h26l-2-5.9A19.31,19.31,0,0,0,123.54,148.27Z" style="fill:#f0f0f0"></path><path d="M123.54,243.11c2.54-5.1,2.06-11.8,1.89-13.42v-.06c0-.09,0-.16,0-.21v-.11a61.09,61.09,0,0,0-13-3.28h0v-6.16H99.09v6h0a40,40,0,0,0-12.71,3.4l0,0s0,16.4,9.2,22l-2.19,5.9h26l-2-5.9A19.31,19.31,0,0,0,123.54,243.11Z" style="fill:#f0f0f0"></path><rect x="83.01" y="162.32" width="45.89" height="25.8" style="fill:#f0f0f0"></rect><rect x="83.01" y="257.3" width="45.89" height="25.8" style="fill:#f0f0f0"></rect><rect x="147.54" y="162.32" width="208.12" height="55.92" style="fill:#f5f5f5"></rect><rect x="147.54" y="227.36" width="208.12" height="55.92" style="fill:#f5f5f5"></rect><polygon points="198.64 126.84 198.64 126.84 160.55 126.84 160.55 153 178.19 153 178.19 153 198.64 153 216.28 153 216.28 145.44 198.64 126.84" style="fill:#f0f0f0"></polygon><polygon points="264.32 126.84 264.32 126.84 226.23 126.84 226.23 153 243.88 153 243.88 153 264.32 153 281.97 153 281.97 145.44 264.32 126.84" style="fill:#f0f0f0"></polygon><polygon points="330.01 126.84 330.01 126.84 291.92 126.84 291.92 153 309.56 153 309.56 153 330.01 153 347.65 153 347.65 145.44 330.01 126.84" style="fill:#f0f0f0"></polygon><polygon points="198.64 192.08 198.64 192.08 160.55 192.08 160.55 218.24 178.19 218.24 178.19 218.24 198.64 218.24 216.28 218.24 216.28 210.68 198.64 192.08" style="fill:#f0f0f0"></polygon><polygon points="264.32 192.08 264.32 192.08 226.23 192.08 226.23 218.24 243.88 218.24 243.88 218.24 264.32 218.24 281.97 218.24 281.97 210.68 264.32 192.08" style="fill:#f0f0f0"></polygon><polygon points="330.01 192.08 330.01 192.08 291.92 192.08 291.92 218.24 309.56 218.24 309.56 218.24 330.01 218.24 347.65 218.24 347.65 210.68 330.01 192.08" style="fill:#f0f0f0"></polygon><polygon points="198.64 257.12 198.64 257.12 160.55 257.12 160.55 283.28 178.19 283.28 178.19 283.28 198.64 283.28 216.28 283.28 216.28 275.72 198.64 257.12" style="fill:#f0f0f0"></polygon><polygon points="264.32 257.12 264.32 257.12 226.23 257.12 226.23 283.28 243.88 283.28 243.88 283.28 264.32 283.28 281.97 283.28 281.97 275.72 264.32 257.12" style="fill:#f0f0f0"></polygon><polygon points="330.01 257.12 330.01 257.12 291.92 257.12 291.92 283.28 309.56 283.28 309.56 283.28 330.01 283.28 347.65 283.28 347.65 275.72 330.01 257.12" style="fill:#f0f0f0"></polygon><path d="M414.71,148.27c2.54-5.1,2.06-11.8,1.9-13.42v-.06c0-.09,0-.16,0-.21v-.11a61.17,61.17,0,0,0-13.06-3.28h0V125H390.26v6h0a40.21,40.21,0,0,0-12.71,3.4l0,0s0,16.4,9.19,22l-2.19,5.9h26l-2-5.9A19.31,19.31,0,0,0,414.71,148.27Z" style="fill:#f0f0f0"></path><path d="M414.71,243.11c2.54-5.1,2.06-11.8,1.9-13.42v-.06c0-.09,0-.16,0-.21v-.11A61.17,61.17,0,0,0,403.51,226h0v-6.16H390.26v6h0a40.21,40.21,0,0,0-12.71,3.4l0,0s0,16.4,9.19,22l-2.19,5.9h26l-2-5.9A19.31,19.31,0,0,0,414.71,243.11Z" style="fill:#f0f0f0"></path><rect x="374.19" y="162.32" width="45.89" height="25.8" style="fill:#f0f0f0"></rect><rect x="374.19" y="257.3" width="45.89" height="25.8" style="fill:#f0f0f0"></rect><polygon points="115.67 144.8 86.48 144.8 100.27 128.35 101.88 128.35 115.67 144.8" style="fill:#e0e0e0"></polygon><rect x="100.07" y="83.2" width="2" height="47.81" style="fill:#e0e0e0"></rect><polygon points="412.23 144.8 383.03 144.8 396.82 128.35 398.43 128.35 412.23 144.8" style="fill:#e0e0e0"></polygon><rect x="396.63" y="83.2" width="2" height="47.81" style="fill:#e0e0e0"></rect><polygon points="313.37 144.8 284.18 144.8 297.97 128.35 299.58 128.35 313.37 144.8" style="fill:#e0e0e0"></polygon><rect x="297.78" y="83.2" width="2" height="47.81" style="fill:#e0e0e0"></rect><polygon points="214.52 144.8 185.33 144.8 199.12 128.35 200.73 128.35 214.52 144.8" style="fill:#e0e0e0"></polygon><rect x="198.92" y="83.2" width="2" height="47.81" style="fill:#e0e0e0"></rect></g><g id="freepik--Shadow--inject-61"><ellipse id="freepik--path--inject-61" cx="250" cy="416.24" rx="193.89" ry="11.32" style="fill:#f5f5f5"></ellipse></g><g id="freepik--exhibitor-2--inject-61"><rect x="367.69" y="231.19" width="72.79" height="188.46" style="fill:#263238"></rect><rect x="367.69" y="231.19" width="72.79" height="188.46" style="fill:#fff;opacity:0.6000000000000001"></rect><rect x="367.69" y="231.19" width="24.66" height="188.46" style="fill:#fff;opacity:0.2"></rect><rect x="367.69" y="231.19" width="72.79" height="43.41" style="fill:#9C1137"></rect><rect x="367.69" y="231.19" width="72.79" height="43.47" style="fill:#fff;opacity:0.30000000000000004"></rect><rect x="367.69" y="231.19" width="72.79" height="43.47" style="fill:#fff;opacity:0.5"></rect><path d="M421.42,260.6c2.9-5.84,1.85-13.8,1.85-13.8a61,61,0,0,0-13-3.27v-6.15H397v6a39.82,39.82,0,0,0-12.74,3.41h0s0,16.4,9.2,22l-2.19,5.91h26l-2-5.91A19.31,19.31,0,0,0,421.42,260.6Z" style="fill:#263238"></path><path d="M384.22,246.8A39.54,39.54,0,0,1,397,243.38s3,2,9.2,1.91c3.37-.06,4.06-1.76,4.06-1.76a60.44,60.44,0,0,1,13,3.27s2.64,19.86-11.87,19.86C394,266.66,384.22,246.8,384.22,246.8Z" style="fill:#fff;opacity:0.2"></path><path d="M409,257.6l-.11,0c-9.16-4.63-14.3-13.58-14.35-13.67a.24.24,0,0,1,.1-.34.26.26,0,0,1,.34.1c.05.08,5,8.77,13.93,13.36.71-1.17,4.34-7.52,2.79-13.17a.25.25,0,0,1,.18-.31.24.24,0,0,1,.3.17c1.77,6.45-2.78,13.48-3,13.77A.26.26,0,0,1,409,257.6Z" style="fill:#fff"></path><path d="M409.15,261.94a2.42,2.42,0,1,1,2.41-2.42A2.43,2.43,0,0,1,409.15,261.94Zm0-4.34a1.92,1.92,0,1,0,1.91,1.92A1.92,1.92,0,0,0,409.15,257.6Z" style="fill:#fff"></path><path d="M409.15,260.06a1.27,1.27,0,1,1,1.27-1.27A1.27,1.27,0,0,1,409.15,260.06Zm0-2a.77.77,0,0,0,0,1.54.77.77,0,0,0,0-1.54Z" style="fill:#9C1137"></path><path d="M409.15,260.06a1.27,1.27,0,1,1,1.27-1.27A1.27,1.27,0,0,1,409.15,260.06Zm0-2a.77.77,0,0,0,0,1.54.77.77,0,0,0,0-1.54Z" style="fill:#fff;opacity:0.5"></path><path d="M409.65,258.29a.5.5,0,1,1-.5-.5A.5.5,0,0,1,409.65,258.29Z" style="fill:#9C1137"></path><rect x="367.69" y="231.19" width="24.66" height="43.47" style="fill:#fff;opacity:0.2"></rect><polygon points="367.69 259.56 387.65 231.19 378.04 231.19 367.69 245.77 367.69 259.56" style="fill:#fff;opacity:0.2"></polygon><polygon points="416.5 231.19 398.19 274.66 409.7 274.66 427.45 231.19 416.5 231.19" style="fill:#fff;opacity:0.2"></polygon><polygon points="435.91 231.19 417.6 274.66 420.38 274.66 438.12 231.19 435.91 231.19" style="fill:#fff;opacity:0.2"></polygon><rect x="417.28" y="288.67" width="1" height="130.98" style="fill:#fff"></rect></g><g id="freepik--exhibitor-1--inject-61"><rect x="302.65" y="231.19" width="72.79" height="188.46" style="fill:#263238"></rect><rect x="302.65" y="231.19" width="72.79" height="188.46" style="fill:#fff;opacity:0.6000000000000001"></rect><rect x="302.65" y="231.19" width="25.94" height="188.46" style="fill:#fff;opacity:0.2"></rect><rect x="302.65" y="231.19" width="72.79" height="43.41" style="fill:#9C1137"></rect><rect x="367.69" y="231.19" width="7.75" height="43.47" style="opacity:0.2"></rect><rect x="302.65" y="231.19" width="72.79" height="43.47" style="fill:#fff;opacity:0.30000000000000004"></rect><rect x="302.65" y="231.19" width="72.8" height="43.47" style="fill:#fff;opacity:0.5"></rect><path d="M356.38,260.6c2.9-5.84,1.85-13.8,1.85-13.8a61,61,0,0,0-13.05-3.27v-6.15H331.93v6a39.83,39.83,0,0,0-12.75,3.41h0s0,16.4,9.2,22l-2.19,5.91h26l-2-5.91A19.31,19.31,0,0,0,356.38,260.6Z" style="fill:#263238"></path><path d="M319.18,246.8a39.54,39.54,0,0,1,12.74-3.42s3,2,9.2,1.91c3.37-.06,4.06-1.76,4.06-1.76a60.44,60.44,0,0,1,13.05,3.27s2.64,19.86-11.87,19.86C329,266.66,319.18,246.8,319.18,246.8Z" style="fill:#fff;opacity:0.2"></path><path d="M344,257.6l-.11,0c-9.16-4.63-14.3-13.58-14.35-13.67a.25.25,0,0,1,.1-.34.26.26,0,0,1,.34.1c0,.08,5,8.77,13.93,13.36.71-1.17,4.34-7.52,2.79-13.17a.25.25,0,0,1,.18-.31.25.25,0,0,1,.31.17c1.76,6.45-2.79,13.48-3,13.77A.26.26,0,0,1,344,257.6Z" style="fill:#263238"></path><rect x="343.49" y="257.19" width="0.86" height="4.32" transform="translate(-17.42 24.87) rotate(-4.04)" style="fill:#fff"></rect><rect x="343.53" y="258.29" width="0.86" height="3.21" transform="translate(-17.46 24.88) rotate(-4.04)" style="fill:#9C1137"></rect><rect x="345.22" y="255.52" width="0.86" height="4.32" transform="translate(-43.25 71.58) rotate(-11.13)" style="fill:#fff"></rect><rect x="345.33" y="256.62" width="0.86" height="3.21" transform="translate(-43.35 71.61) rotate(-11.13)" style="fill:#9C1137"></rect><rect x="340.73" y="255.93" width="0.86" height="4.32" style="fill:#fff"></rect><rect x="340.73" y="257.03" width="0.86" height="3.21" style="fill:#9C1137"></rect><rect x="338.37" y="254.39" width="0.86" height="4.32" transform="translate(21.38 -26.02) rotate(4.54)" style="fill:#fff"></rect><rect x="338.33" y="255.49" width="0.86" height="3.21" transform="translate(21.42 -26.02) rotate(4.54)" style="fill:#9C1137"></rect><rect x="346.55" y="252.96" width="0.86" height="4.32" transform="translate(-57.08 106.05) rotate(-16.08)" style="fill:#fff"></rect><rect x="346.7" y="254.04" width="0.86" height="3.21" transform="translate(-57.22 106.12) rotate(-16.08)" style="fill:#9C1137"></rect><rect x="302.65" y="231.19" width="25.94" height="43.47" style="fill:#fff;opacity:0.2"></rect><polygon points="302.65 259.56 322.61 231.19 313 231.19 302.65 245.77 302.65 259.56" style="fill:#fff;opacity:0.2"></polygon><polygon points="351.46 231.19 333.15 274.66 344.66 274.66 362.41 231.19 351.46 231.19" style="fill:#fff;opacity:0.2"></polygon><polygon points="370.87 231.19 352.56 274.66 355.34 274.66 373.08 231.19 370.87 231.19" style="fill:#fff;opacity:0.2"></polygon><rect x="352.06" y="288.67" width="1" height="130.98" style="fill:#fff"></rect></g><g id="freepik--speech-bubble--inject-61"><path d="M284.62,129.82H259.45a8.65,8.65,0,0,0-8.65,8.65v24.45a8.65,8.65,0,0,0,8.65,8.65h10l2.66,9.14,3.16-9.14h9.32a8.65,8.65,0,0,0,8.65-8.65V138.47A8.65,8.65,0,0,0,284.62,129.82Z" style="fill:#9C1137"></path><path d="M263.3,145.8c2.18-3.66,6.46-2.32,8.7.47,2.17-2.85,6.41-4.29,8.69-.7,3.84,6.06-3.84,11.82-7.47,14.09l-1,.64c-.29-.16-.63-.37-1.05-.62C267.44,157.51,259.61,152,263.3,145.8Z" style="fill:#fff;opacity:0.7000000000000001"></path></g><g id="freepik--character-1--inject-61"><polygon points="211.94 278.07 207.81 285.09 202.51 282.61 207.11 273.9 211.94 278.07" style="fill:#e4897b"></polygon><path d="M199.33,273.53l7.78.37-4.6,8.71s-6.54-1.79-5.94-5.37Z" style="fill:#e4897b"></path><path d="M200.07,273.34l-4.28,6s-23.09-17.2-26-22.48c-1.46-2.61-3.06-9.95-4.32-16.73-.92-4.95-1.65-9.61-2-11.89l-.22-1.47,10.74-17.15c3.39,7.66,5.23,40,5.23,40Z" style="fill:#263238"></path><path d="M165.42,240.1c-.92-4.95-1.65-9.61-2-11.89a16,16,0,0,1,4.23-5.55S169.49,228.5,165.42,240.1Z" style="opacity:0.2"></path><polygon points="162.55 411.08 154.99 413.23 153.19 401.46 152.22 395.16 159.78 393.02 161.07 401.46 162.55 411.08" style="fill:#e4897b"></polygon><polygon points="119.08 411.7 111.28 412.74 111.21 401.46 111.15 394.45 118.96 393.43 119.01 401.46 119.08 411.7" style="fill:#e4897b"></polygon><polygon points="118.96 393.43 119.01 401.46 111.21 401.46 111.15 394.45 118.96 393.43" style="opacity:0.2"></polygon><polygon points="161.07 401.46 153.19 401.46 152.22 395.16 159.78 393.02 161.07 401.46" style="opacity:0.2"></polygon><path d="M162.45,409.91l-8.58-.24a.71.71,0,0,0-.69.52l-1.81,6.91a1.14,1.14,0,0,0,1.09,1.43c3.1,0,7.58,0,11.47.07,4.55.13,7.45-.1,12.79,0,3.22.08,4.24-3.14,2.9-3.47-6.11-1.51-10.1-1.21-15.29-4.61A3.59,3.59,0,0,0,162.45,409.91Z" style="fill:#263238"></path><path d="M163.07,410.85a.17.17,0,0,1,.11-.18c.36-.18,3.58-1.7,4.51-1.13a.59.59,0,0,1,.29.5,1,1,0,0,1-.38.89c-.89.74-3.13.37-4.39.08h0A.2.2,0,0,1,163.07,410.85Zm.77-.08c1.73.33,3,.29,3.53-.12a.7.7,0,0,0,.24-.59.21.21,0,0,0-.11-.2.09.09,0,0,0-.07,0C166.85,409.61,165.11,410.21,163.84,410.77Z" style="fill:#9C1137"></path><path d="M163.14,411a.18.18,0,0,1-.07-.17c0-.09.3-2.19,1.33-3a1.37,1.37,0,0,1,1-.29c.51.07.65.33.68.54.11.88-1.83,2.53-2.79,2.92a.23.23,0,0,1-.14,0Zm2.25-3.07a1,1,0,0,0-.76.21,4.34,4.34,0,0,0-1.13,2.39c1-.56,2.32-1.85,2.25-2.38,0,0,0-.12-.17-.18Z" style="fill:#9C1137"></path><path d="M118.76,409.91l-8.58-.24a.71.71,0,0,0-.69.52l-1.8,6.91a1.13,1.13,0,0,0,1.08,1.43c3.1,0,7.58,0,11.47.07,4.55.13,7.45-.1,12.79,0,3.22.08,4.24-3.14,2.9-3.47-6.11-1.51-10.1-1.21-15.29-4.61A3.59,3.59,0,0,0,118.76,409.91Z" style="fill:#263238"></path><path d="M119.38,410.85a.18.18,0,0,1,.11-.18c.36-.18,3.58-1.7,4.52-1.13a.56.56,0,0,1,.28.5,1,1,0,0,1-.38.89c-.89.74-3.13.37-4.39.08h0A.2.2,0,0,1,119.38,410.85Zm.77-.08c1.73.33,3,.29,3.53-.12a.7.7,0,0,0,.24-.59.19.19,0,0,0-.11-.2.09.09,0,0,0-.06,0C123.16,409.61,121.42,410.21,120.15,410.77Z" style="fill:#9C1137"></path><path d="M119.45,411a.18.18,0,0,1-.07-.17c0-.09.3-2.19,1.33-3a1.39,1.39,0,0,1,1.05-.29c.5.07.64.33.67.54.11.88-1.83,2.53-2.79,2.92a.23.23,0,0,1-.14,0Zm2.25-3.07a1,1,0,0,0-.76.21,4.41,4.41,0,0,0-1.13,2.39c1-.56,2.32-1.85,2.25-2.38,0,0,0-.12-.17-.18A.69.69,0,0,0,121.7,407.91Z" style="fill:#9C1137"></path><path d="M101.82,256.22C100.87,298,106,399.05,106,399.05h13.7l5.85-117.37,21.57,117.37L161.71,398c-9.57-90.92-18-145.2-18-145.2l0-6.86-25.62-3.54A14.3,14.3,0,0,0,101.82,256.22Z" style="fill:#263238"></path><path d="M161.72,398l-14.65,1.06-17-92.39-4.59-25-5.86,117.36H106s-5.09-101-4.14-142.83a14.31,14.31,0,0,1,16.26-13.83l25.63,3.54,0,6.85S152.14,307.06,161.72,398Z" style="fill:#fff;opacity:0.2"></path><path d="M146,257.19l.18,9.51-16.74,1.73L127,262.75l-2.37,6-23.74-7s.86-12.69,6.88-21.43c.39-.67,1.56-2.58,3.14-5.16,4.81-7.83,13.44-21.81,15.68-25.72.56-1,1.12-2,1.67-3a163,163,0,0,0,9.54-20.13s3.32,1.26,7.31,3.17c.76.36,1.55.74,2.34,1.15.4.2.79.41,1.18.62q.88.47,1.74,1a152.1,152.1,0,0,1,14.78,9.33c.5.39,1,.77,1.45,1.16l.2.15c.88.73,1.72,1.47,2.49,2.16,2.79,2.53,4.69,4.62,4.69,4.62S170.6,231.89,146,257.19Z" style="fill:#263238"></path><path d="M130.1,306.66l-4.59-25,.88-13.22S132.69,291.39,130.1,306.66Z" style="opacity:0.2"></path><path d="M169.24,205l-1.17,11.51-4.33-1.32-.54,8.3L147,230s-4.66-21-4.58-21.42S147,206,147,206l-6-10.87,4.07-5.67c.76.36,1.55.74,2.34,1.15.4.2.79.41,1.18.62q.88.47,1.74,1a152.1,152.1,0,0,1,14.78,9.33c.5.39,1,.77,1.45,1.16l.2.15C167.63,203.54,168.47,204.28,169.24,205Z" style="fill:#fff;opacity:0.2"></path><path d="M148.41,226.94c2.83-14.26.44-33.63.17-35.73.59.31,1.18.63,1.75,1a150.71,150.71,0,0,1,14.77,9.33c.5.39,1,.77,1.46,1.16C165.3,212.83,148.41,226.94,148.41,226.94Z" style="fill:#9C1137"></path><path d="M151.81,223.87c-2,1.91-3.4,3.07-3.4,3.07.3-1.56.56-3.19.75-4.85,1.59-13.45-.34-29-.58-30.88.59.31,1.18.63,1.75,1a150.71,150.71,0,0,1,14.77,9.33c.5.39,1,.77,1.46,1.16C165.66,209.91,156.82,219.16,151.81,223.87Z" style="fill:#fff;opacity:0.8"></path><path d="M158.23,210.2l-6.42,13.67c-2,1.91-3.4,3.07-3.4,3.07.3-1.56.56-3.19.75-4.85l7.51-12.52-1.7-6.19,4.77.91,2.55,3Z" style="fill:#9C1137"></path><path d="M165.49,203.33s-3.94,1.76-5.75,1c-2.56-1.13-8-11.71-8-11.71,2.91-.27,5.85-2.89,8.36-6.05a53.25,53.25,0,0,0,5.25-8.25L168.07,192c-2.74,2.1-5.17,4.68-4.33,8l0,0A8.45,8.45,0,0,0,165.49,203.33Z" style="fill:#e4897b"></path><path d="M163.74,200.05a27.14,27.14,0,0,1-3.67-13.52,53.25,53.25,0,0,0,5.25-8.25L168.07,192C165.33,194.13,162.9,196.71,163.74,200.05Z" style="opacity:0.2"></path><path d="M187.66,181c-.87,3-4.66,7.74-7,3.81S189.15,175.89,187.66,181Z" style="fill:#263238"></path><path d="M167.73,172.49c-4.59,6.07-7.59,9.39-7.2,14.82.6,8.18,10.06,11.59,16.39,7,5.7-4.13,12.26-13.35,8.53-20.45A10.5,10.5,0,0,0,167.73,172.49Z" style="fill:#e4897b"></path><path d="M174.46,172l4.71-7.06s-7.14-5.58-9.37-1.51c-5.54-.71-7.9,7.07-4.43,14,4.7-.41,8.29-6.54,8.29-6.54C173.9,171.25,174.17,171.63,174.46,172Z" style="fill:#263238"></path><path d="M161.38,175.39a7.17,7.17,0,0,0,0,5.5c1,2.33,3.48,1.94,4.87,0,1.26-1.76,2.26-5.09.47-6.8A3.29,3.29,0,0,0,161.38,175.39Z" style="fill:#e4897b"></path><path d="M175.18,181.54c-.4.47-.48,1.06-.17,1.33s.89.09,1.29-.38.48-1.06.17-1.32S175.58,181.07,175.18,181.54Z" style="fill:#263238"></path><path d="M180.54,186.06c-.41.47-.48,1.06-.17,1.32s.88.09,1.29-.38.48-1.06.17-1.32S180.94,185.59,180.54,186.06Z" style="fill:#263238"></path><path d="M178.63,184.85a21.44,21.44,0,0,0-1,5.82,3.69,3.69,0,0,1-2.58-1.52Z" style="fill:#de5753"></path><path d="M171,188.8a5.17,5.17,0,0,0,.58.56.18.18,0,0,0,.26,0,.18.18,0,0,0,0-.25,4.89,4.89,0,0,1-1.82-4,.17.17,0,0,0-.15-.2.19.19,0,0,0-.21.16A5,5,0,0,0,171,188.8Z" style="fill:#263238"></path><path d="M175,178.44a.37.37,0,0,0,.35.11,2.92,2.92,0,0,1,2.57.58.37.37,0,1,0,.52-.52,3.7,3.7,0,0,0-3.25-.77.38.38,0,0,0-.28.43A.46.46,0,0,0,175,178.44Z" style="fill:#263238"></path><path d="M184.41,186.18a.32.32,0,0,0,.18.1A.36.36,0,0,0,185,186a3.53,3.53,0,0,0-.67-3.23.36.36,0,0,0-.54.48,2.8,2.8,0,0,1,.5,2.57A.37.37,0,0,0,184.41,186.18Z" style="fill:#263238"></path><path d="M169.8,163.45s-1.59-6.36,11.7,2.2,10.93,17.48,3.68,15.48l.46-1.4a9.81,9.81,0,0,1-7.14-3.86h1.35S170.07,171.21,169.8,163.45Z" style="fill:#263238"></path><path d="M172.18,186.8s2.09.79,2,3.76c0,0-3.45-1.79-3.11-3.28,0,0-1.1-.08-1.11-4.41C169.93,182.87,172.79,184.74,172.18,186.8Z" style="fill:#263238"></path><path d="M159.75,204.29s-2.93,1-6.13,1.69c-2-3.19-6.34-11.14-3.83-14.51,1-.81,4.15.19,4.15.19S154.57,197.32,159.75,204.29Z" style="fill:#9C1137"></path><path d="M159.75,204.29a22.29,22.29,0,0,1,1.29,6.19c2.94-.08,5.92-7.39,5.59-8.6a8.82,8.82,0,0,0-3-3.15A7.19,7.19,0,0,1,159.75,204.29Z" style="fill:#9C1137"></path><g style="opacity:0.7000000000000001"><path d="M159.75,204.29s-2.93,1-6.13,1.69c-2-3.19-6.34-11.14-3.83-14.51,1-.81,4.15.19,4.15.19S154.57,197.32,159.75,204.29Z" style="fill:#fff"></path><path d="M159.75,204.29a22.29,22.29,0,0,1,1.29,6.19c2.94-.08,5.92-7.39,5.59-8.6a8.82,8.82,0,0,0-3-3.15A7.19,7.19,0,0,1,159.75,204.29Z" style="fill:#fff"></path></g><path d="M132.54,226.66l-1.89,7s-11.61,2.76-19.79,1.47c4.81-7.83,13.44-21.81,15.68-25.72.56-1,1.12-2,1.67-3a7.78,7.78,0,0,1,2.51.66l-8.36,11.25Z" style="opacity:0.2"></path><path d="M137.75,186.27c-9.48-1.46-40.79,19.6-41.49,28.59s29.25,18.77,29.25,18.77l3.59-8-15.91-10.51,17.53-8.1s5-6.78,6.67-10.69S137.75,186.27,137.75,186.27Z" style="fill:#263238"></path><rect x="128.63" y="217.26" width="9.23" height="7.13" rx="1.47" transform="translate(48.66 -22.82) rotate(11.96)" style="fill:#9C1137"></rect><rect x="130.61" y="217.47" width="7.23" height="7.13" rx="1.47" transform="translate(48.73 -23.02) rotate(11.96)" style="opacity:0.2"></rect><rect x="134.25" y="222.05" width="3.09" height="3.09" rx="0.87" transform="translate(49.3 -23.29) rotate(11.96)" style="fill:#fff"></rect><path d="M136.73,223.79a1,1,0,1,1-.74-1.13A1,1,0,0,1,136.73,223.79Z" style="fill:#9C1137"></path><path d="M136.73,223.79a1,1,0,1,1-.74-1.13A1,1,0,0,1,136.73,223.79Z" style="fill:#fff;opacity:0.30000000000000004"></path><path d="M129.82,224.4h10.38a0,0,0,0,1,0,0v3.37a2.38,2.38,0,0,1-2.38,2.38H132.2a2.38,2.38,0,0,1-2.38-2.38V224.4A0,0,0,0,1,129.82,224.4Z" transform="translate(50.04 -23.05) rotate(11.96)" style="fill:#9C1137"></path><path d="M126.22,232.76l7.35,2.68-.83-8.64s-6.7-2-7.59,1.5Z" style="fill:#e4897b"></path><polygon points="141.17 233.93 137.94 226.74 132.74 226.8 133.57 235.44 141.17 233.93" style="fill:#e4897b"></polygon></g><g id="freepik--Counter--inject-61"><rect x="62.36" y="261.2" width="227.91" height="158.2" style="fill:#263238"></rect><rect x="62.36" y="261.2" width="227.91" height="158.44" style="fill:#fff;opacity:0.7000000000000001"></rect><rect x="62.36" y="261.2" width="61.4" height="158.43" style="fill:#fff;opacity:0.2"></rect><rect x="62.36" y="261.2" width="227.91" height="43.47" style="fill:#9C1137"></rect><rect x="62.36" y="261.2" width="227.91" height="43.54" style="fill:#fff;opacity:0.30000000000000004"></rect><g style="opacity:0.2"><path d="M150.72,304.68h-21.2l-4-21.87-1.09,21.87H102.24c-.42-16.29-.65-31.72-.49-43.47h43C146,269.35,148.06,284.12,150.72,304.68Z"></path><path d="M211.94,279.19l-4.14,7-5.3-2.48s-5.35-1.48-5.91-4.42l-.8,1.12s-16.41-12.22-23.34-19.22h16l11.64,13.25-.15.21,7.19.35Z"></path></g><path d="M130.49,304.68h-1l-4-21.87.89-13.22S131.88,289.6,130.49,304.68Z" style="opacity:0.1"></path><rect x="62.35" y="261.21" width="227.91" height="43.47" style="fill:#fff;opacity:0.5"></rect><rect x="181.01" y="286.21" width="40.67" height="18.47" style="fill:#263238"></rect><polygon points="221.68 286.21 181.01 286.21 181.01 304.68 199.85 304.68 240.52 304.68 240.52 299.34 221.68 286.21" style="fill:#263238"></polygon><polygon points="181.01 286.21 199.85 299.34 199.85 304.68 181.01 304.68 181.01 286.21" style="opacity:0.2"></polygon><polygon points="199.85 299.34 240.52 299.34 221.68 286.21 181.01 286.21 199.85 299.34" style="fill:#fff;opacity:0.2"></polygon><rect x="190.83" y="289.68" width="33.92" height="0.46" style="opacity:0.2"></rect><rect x="198.45" y="294.91" width="33.92" height="0.46" style="opacity:0.2"></rect><rect x="210.43" y="293.21" width="2.95" height="2.95" rx="0.82" style="fill:#263238"></rect><rect x="211.23" y="293.76" width="1.35" height="1.85" rx="0.43" style="fill:#9C1137"></rect><path d="M229.22,294.68a1.57,1.57,0,1,1-1.57-1.57A1.57,1.57,0,0,1,229.22,294.68Z" style="fill:#263238"></path><path d="M228.27,294.68c0,.51-.28.92-.62.92s-.63-.41-.63-.92.28-.92.63-.92S228.27,294.17,228.27,294.68Z" style="fill:#9C1137"></path><path d="M226.93,294.68c0,.26-.14.46-.31.46s-.31-.2-.31-.46.14-.46.31-.46S226.93,294.43,226.93,294.68Z" style="fill:#9C1137"></path><path d="M229,294.68c0,.26-.14.46-.31.46s-.31-.2-.31-.46.14-.46.31-.46S229,294.43,229,294.68Z" style="fill:#9C1137"></path><polygon points="204.81 293.34 203.26 293.34 202.49 294.68 203.26 296.02 204.81 296.02 205.59 294.68 204.81 293.34" style="fill:#263238"></polygon><polygon points="204.63 293.67 203.45 293.67 202.87 294.68 203.45 295.7 204.63 295.7 205.21 294.68 204.63 293.67" style="fill:#fff"></polygon><rect x="218.3" y="293.21" width="2.95" height="2.95" rx="0.82" transform="translate(272.74 -69.1) rotate(45)" style="fill:#263238"></rect><path d="M220.6,294.68a.85.85,0,1,1-.82-1.08A1,1,0,0,1,220.6,294.68Z" style="fill:#9C1137"></path><polygon points="197.14 291.05 198.69 291.05 199.46 289.71 198.69 288.37 197.14 288.37 196.36 289.71 197.14 291.05" style="fill:#fff"></polygon><polygon points="197.33 290.72 198.5 290.72 199.08 289.71 198.5 288.69 197.33 288.69 196.74 289.71 197.33 290.72" style="fill:#9C1137"></polygon><rect x="210.16" y="288.23" width="2.95" height="2.95" rx="0.82" transform="translate(423.26 579.42) rotate(180)" style="fill:#fff"></rect><rect x="210.96" y="288.79" width="1.35" height="1.85" rx="0.43" transform="translate(423.26 579.42) rotate(180)" style="fill:#9C1137"></rect><rect x="217.02" y="288.23" width="2.95" height="2.95" rx="0.82" transform="translate(168.13 649.06) rotate(-135)" style="fill:#263238"></rect><path d="M217.67,289.71a.85.85,0,1,1,.82,1.08A1,1,0,0,1,217.67,289.71Z" style="fill:#fff"></path><rect x="203.3" y="288.23" width="2.95" height="2.95" rx="0.82" style="fill:#263238"></rect><rect x="204.1" y="288.79" width="1.35" height="1.85" rx="0.43" style="fill:#fff"></rect><rect x="119.45" y="286.21" width="40.67" height="18.47" style="fill:#263238"></rect><polygon points="160.12 286.21 119.45 286.21 119.45 304.68 138.29 304.68 178.96 304.68 178.96 299.34 160.12 286.21" style="fill:#263238"></polygon><polygon points="119.45 286.21 138.28 299.34 138.28 304.68 119.45 304.68 119.45 286.21" style="opacity:0.2"></polygon><polygon points="138.28 299.34 178.96 299.34 160.12 286.21 119.45 286.21 138.28 299.34" style="fill:#fff;opacity:0.2"></polygon><rect x="127.8" y="289.68" width="33.92" height="0.46" style="opacity:0.2"></rect><rect x="135.41" y="294.91" width="33.92" height="0.46" style="opacity:0.2"></rect><path d="M142.58,294.68a1.58,1.58,0,1,1-3.15,0,1.58,1.58,0,0,1,3.15,0Z" style="fill:#fff"></path><path d="M141.63,294.68c0,.51-.28.92-.63.92s-.62-.41-.62-.92.28-.92.62-.92S141.63,294.17,141.63,294.68Z" style="fill:#9C1137"></path><path d="M140.28,294.68c0,.26-.14.46-.31.46s-.31-.2-.31-.46.14-.46.31-.46S140.28,294.43,140.28,294.68Z" style="fill:#9C1137"></path><path d="M142.34,294.68c0,.26-.14.46-.31.46s-.31-.2-.31-.46.14-.46.31-.46S142.34,294.43,142.34,294.68Z" style="fill:#9C1137"></path><rect x="163.14" y="293.21" width="2.95" height="2.95" rx="0.82" transform="translate(256.57 -30.09) rotate(45)" style="fill:#fff"></rect><path d="M165.43,294.68a.85.85,0,1,1-.82-1.08A1,1,0,0,1,165.43,294.68Z" style="fill:#9C1137"></path><polygon points="149.65 293.34 148.1 293.34 147.32 294.68 148.1 296.02 149.65 296.02 150.42 294.68 149.65 293.34" style="fill:#263238"></polygon><polygon points="149.46 293.67 148.29 293.67 147.7 294.68 148.29 295.7 149.46 295.7 150.04 294.68 149.46 293.67" style="fill:#9C1137"></polygon><rect x="155.27" y="293.21" width="2.95" height="2.95" rx="0.82" transform="translate(254.28 -24.52) rotate(45)" style="fill:#263238"></rect><path d="M157.56,294.68a.85.85,0,1,1-.82-1.08A1,1,0,0,1,157.56,294.68Z" style="fill:#9C1137"></path><polygon points="156.42 288.34 154.87 288.34 154.1 289.68 154.87 291.02 156.42 291.02 157.2 289.68 156.42 288.34" style="fill:#fff"></polygon><polygon points="156.23 288.67 155.06 288.67 154.48 289.68 155.06 290.7 156.23 290.7 156.82 289.68 156.23 288.67" style="fill:#9C1137"></polygon><rect x="140.45" y="288.21" width="2.95" height="2.95" rx="0.82" style="fill:#fff"></rect><rect x="141.25" y="288.76" width="1.35" height="1.85" rx="0.43" style="fill:#9C1137"></rect><path d="M150.36,289.68a1.58,1.58,0,1,1-1.57-1.57A1.57,1.57,0,0,1,150.36,289.68Z" style="fill:#263238"></path><path d="M149.41,289.68c0,.51-.28.92-.62.92s-.63-.41-.63-.92.28-.92.63-.92S149.41,289.17,149.41,289.68Z" style="fill:#fff"></path><ellipse cx="147.76" cy="289.68" rx="0.31" ry="0.46" style="fill:#fff"></ellipse><ellipse cx="149.82" cy="289.68" rx="0.31" ry="0.46" style="fill:#fff"></ellipse><rect x="133.59" y="288.21" width="2.95" height="2.95" rx="0.82" transform="translate(244.4 -10.66) rotate(45)" style="fill:#263238"></rect><ellipse cx="135.07" cy="289.68" rx="0.82" ry="1.08" style="fill:#fff"></ellipse><path d="M115.23,290.62c2.91-5.84,1.86-13.8,1.86-13.8A61.11,61.11,0,0,0,104,273.55v-6.16H90.78v6A39.54,39.54,0,0,0,78,276.82h0s0,16.4,9.19,22L85,304.75h26l-2-5.91A19.31,19.31,0,0,0,115.23,290.62Z" style="fill:#263238"></path><path d="M78,276.82a39.54,39.54,0,0,1,12.74-3.42s3,2,9.2,1.91c3.37-.06,4-1.77,4-1.77a61.17,61.17,0,0,1,13.06,3.28s2.64,19.86-11.87,19.86C87.81,296.68,78,276.82,78,276.82Z" style="fill:#fff;opacity:0.2"></path><path d="M102.85,287.62a.27.27,0,0,1-.12,0C93.57,283,88.44,274,88.39,273.93a.25.25,0,1,1,.43-.25c.05.09,5,8.78,13.93,13.36.72-1.16,4.35-7.51,2.8-13.17a.24.24,0,0,1,.17-.3.25.25,0,0,1,.31.17c1.77,6.45-2.78,13.47-3,13.77A.23.23,0,0,1,102.85,287.62Z" style="fill:#fff"></path><path d="M102.85,287s4.35,4.51.85,4.51S102.85,287,102.85,287Z" style="fill:#fff"></path><path d="M103.11,288.34s2.27,2.67.53,2.67S103.11,288.34,103.11,288.34Z" style="fill:#9C1137"></path><path d="M274.33,290.62c2.91-5.84,1.85-13.8,1.85-13.8a61,61,0,0,0-13.05-3.27v-6.16H249.88v6a39.66,39.66,0,0,0-12.75,3.42h0s0,16.4,9.2,22l-2.19,5.91h26l-2-5.91A19.31,19.31,0,0,0,274.33,290.62Z" style="fill:#263238"></path><path d="M237.13,276.82a39.55,39.55,0,0,1,12.75-3.42s3,2,9.19,1.91c3.37-.06,4.06-1.77,4.06-1.77a61.09,61.09,0,0,1,13.05,3.28s2.64,19.86-11.86,19.86C246.91,296.68,237.13,276.82,237.13,276.82Z" style="fill:#fff;opacity:0.2"></path><path d="M261.94,287.62a.2.2,0,0,1-.11,0c-9.16-4.63-14.3-13.57-14.35-13.66a.25.25,0,0,1,.1-.34.25.25,0,0,1,.34.09c.05.09,5,8.78,13.93,13.36.71-1.16,4.34-7.51,2.79-13.17a.25.25,0,0,1,.49-.13c1.76,6.45-2.79,13.47-3,13.77A.26.26,0,0,1,261.94,287.62Z"></path><path d="M257.9,284.91a25.29,25.29,0,0,0,4.06,2.46l1.49-2.85.94,2.51-1.8,3.21-4.43-2.7Z" style="fill:#9C1137"></path><path d="M262.08,287.89c.66-.1,1,1.56.34,1.63S261.46,288,262.08,287.89Z" style="fill:#fff"></path><path d="M263,286.37c.54-.09.79,1.28.28,1.34S262.52,286.45,263,286.37Z" style="fill:#fff"></path><path d="M260.09,286.71c.54-.09.79,1.28.28,1.34S259.58,286.79,260.09,286.71Z" style="fill:#fff"></path><rect x="62.36" y="261.2" width="61.4" height="43.54" style="fill:#fff;opacity:0.2"></rect><polygon points="106.88 261.2 76.04 304.68 85.9 304.68 116.49 261.2 106.88 261.2" style="fill:#fff;opacity:0.2"></polygon><polygon points="165.34 261.2 147.04 304.68 158.55 304.68 176.3 261.2 165.34 261.2" style="fill:#fff;opacity:0.2"></polygon><polygon points="184.76 261.2 166.45 304.68 169.22 304.68 186.97 261.2 184.76 261.2" style="fill:#fff;opacity:0.2"></polygon><polygon points="262.41 261.2 244.1 304.68 255.61 304.68 273.36 261.2 262.41 261.2" style="fill:#fff;opacity:0.2"></polygon><path d="M160.8,332.39l.61-.66a3.6,3.6,0,0,0,3.05,1.73c1.83,0,2.74-1,2.74-3.25v-8.82h-5.08v-.9h6.08v9.72c0,2.77-1.28,4.15-3.74,4.15A4.31,4.31,0,0,1,160.8,332.39Z" style="fill:#fff"></path><path d="M182.4,333.36v.9h-9.51V320.49h9.21v.9h-8.2v5.43h7.34v.89H173.9v5.65Z" style="fill:#fff"></path><path d="M204.29,320.49l-4.66,13.77h-1.07l-4.27-12.36L190,334.26h-1.06l-4.69-13.77h1.07l4.19,12.4,4.31-12.4h1l4.3,12.42,4.23-12.42Z" style="fill:#fff"></path><path d="M216.7,333.36v.9h-9.51V320.49h9.22v.9H208.2v5.43h7.34v.89H208.2v5.65Z" style="fill:#fff"></path><path d="M220.37,320.49h1v12.87h7.93v.9h-8.93Z" style="fill:#fff"></path><path d="M241.45,334.26l-3.29-4.6a9.45,9.45,0,0,1-1.33.1h-3.94v4.5h-1V320.49h4.94c3.46,0,5.55,1.73,5.55,4.64a4.22,4.22,0,0,1-3.23,4.31l3.44,4.82Zm-4.62-5.39c2.95,0,4.52-1.38,4.52-3.74s-1.57-3.74-4.52-3.74h-3.94v7.48Z" style="fill:#fff"></path><path d="M250.12,329.52v4.74h-1v-4.74l-5.55-9h1.1l5,8.11,5-8.11h1Z" style="fill:#fff"></path><rect x="124.3" y="325.96" width="31.63" height="1" style="fill:#fff"></rect><rect x="260.64" y="325.96" width="29.62" height="1" style="fill:#fff"></rect></g><g id="freepik--character-2--inject-61"><path d="M266.14,190.35c-6.26,5.16-6.26,9.85-5.73,19.39s.93,23.64,13.44,25.92,17.81-5.32,18-20.76-4.67-25.34-11.48-27.23S266.14,190.35,266.14,190.35Z" style="fill:#263238"></path><path d="M319,321.32h0a70.66,70.66,0,0,1-19.3,3.62c-.49-4.33-1.07-9.12-1.69-14.06q-2.71,6.54-6.26,13.82a47.46,47.46,0,0,1-17.42-5c1.21-9.65,3-20.16,4.75-29.4a28.66,28.66,0,0,1,7.74-3.12,34.15,34.15,0,0,1,7.9-.94,59.13,59.13,0,0,1,11.55,1.05,72.49,72.49,0,0,1,14.5,4.28A165.52,165.52,0,0,1,319,321.32Z" style="opacity:0.2"></path><path d="M292.52,419.65s-1.7-1.7,3.37-3.06a4,4,0,0,0,.72-.27c2.7-1.27,6.55-5.55,6.55-5.55H309a6.3,6.3,0,0,1,.48.84c.64,1.28,1.44,4.31-.8,8Z" style="fill:#263238"></path><path d="M248.16,419.65s-1.69-1.7,3.38-3.06a4,4,0,0,0,.72-.27c2.7-1.27,6.55-5.55,6.55-5.55h5.84a6.3,6.3,0,0,1,.48.84c.64,1.28,1.74,4-.5,7.71" style="fill:#263238"></path><path d="M312.6,260.22a176.15,176.15,0,0,1-6.75-17c-.65-1.89-1.23-3.71-1.76-5.43h0c-.14-.45-.28-.9-.41-1.34-.24-.8-.47-1.58-.68-2.33-.49-1.73-.92-3.36-1.29-4.86a105.15,105.15,0,0,1-2.11-10.47,38.2,38.2,0,0,0-5.35.45l0,.35h0l0-.35h0c-1.11.13-2.18.31-3.23.52-.64-.1-1.63-.26-2-.38-4.06-1.16-5.25-8.27-6-12.91l-5.38,10.5c2,3,3,5.93-1.21,9.13h0c-1.24.86-2.31,1.7-3.18,2.44,0,0-.12.3-.29.85h0c.17-.55.29-.85.29-.85a28.69,28.69,0,0,0-3,2.85s0,0,0,.05a5,5,0,0,0-1.07,2.41c-.95,6.77-1.87,13.73-3.29,20.41a38.08,38.08,0,0,1-1.68,5.86,20.29,20.29,0,0,1-3.44,4.54c-4.3,4.57-9,8.86-13.69,13.18l-6.51,1.27-4.76,3.87,3.2,4.79,4.17-1.6s5.64-.31,7.44-4.62c3.41-2.06,6.71-4.24,9.94-6.63,4.07-3.18,8.56-6.34,11.25-10.95a49.29,49.29,0,0,0,3.85-11.85A104.43,104.43,0,0,0,283.89,265l0,.56c-5.38,12.86-10.52,52.26-10.52,52.26l1.22.24c-.07.54-.15,1.08-.21,1.61-.46,3.6-.83,7.08-1.09,10.34-4.15,23.91-10.59,74.34-13.86,79.54,0,0-4.44,5.51-7.14,6.78,1.14,1.16,3.72.65,6-.49,2.57-1.29,6.08-5.06,6.85-4.2v0c-.06-.13-.17-.32-.29-.53h0s22.11-40.25,23.51-79.61c1.2-2.31,2.34-4.56,3.42-6.77.71-1.45,1.38-2.86,2-4.27,1.86.11,3.67.18,5.42.22.18,1.47.34,2.91.5,4.29.29,2.56.56,5,.77,7.15,2.35,23.77,4.52,63.35,1.62,79.21-1.49,1.73-3.8,4.22-5.5,5,1.14,1.16,3.72.65,6-.49,1.34-.67,6.7-4.38,6.85-4.2v0c-.1-.21-.29-.54-.49-.89,2.8-9.47,14.75-52.48,7.76-75.82q1.39-7.25,2.27-13.58h0c.06-.43.11-.85.17-1.27.89-.08,1.38-.14,1.38-.14C328.69,279,312.68,260.32,312.6,260.22Z" style="fill:#ffb573"></path><path d="M276.42,248.3c-.05.31-.12.62-.18.93-.38,1.91-.79,3.81-1.3,5.73-1.1-2.58-.8-7.55-.79-7.88Z" style="opacity:0.2"></path><path d="M312.6,260.22a176.15,176.15,0,0,1-6.75-17c-.65-1.89-1.23-3.71-1.76-5.43h0c-7.65-6.43-9.52-13.5-9.84-18.55h0c-1.11.13-2.18.31-3.23.52l.58.09a10,10,0,0,1-2.17,8.5c-4,5.15-9.44,7.26-12.28,4.24-2.66-2.84-.8-6.41-.76-6.48-1.24.86-2.31,1.7-3.18,2.44,0,0-2.6,6.26-.78,16.74,3.34,8.51,9.16,16.68,11.46,19.75l0,.56c-5.38,12.86-10.52,52.26-10.52,52.26,22.91,4.9,47.24,2.1,47.24,2.1C328.69,279,312.68,260.32,312.6,260.22Z" style="fill:#9C1137"></path><path d="M303.68,236.4a12.83,12.83,0,0,1-3.68-7.58,5.29,5.29,0,0,1,1.71.39c.37,1.5.8,3.13,1.29,4.86C303.21,234.82,303.44,235.6,303.68,236.4Z" style="opacity:0.2"></path><path d="M280.79,210.7l-3.18,6.22a14.79,14.79,0,0,1,1.25,2.18c1.66-1.06,3.36-4.14,2.86-6.13A6.86,6.86,0,0,0,280.79,210.7Z" style="opacity:0.2"></path><path d="M271.84,187.62c-8.56,3.24-13.19,14.38-4.83,22.27s20.43,1.5,21.16-8.94C288.7,193.33,281.62,183.91,271.84,187.62Z" style="fill:#263238"></path><path d="M282.8,196.53c1.73,7.25,2.62,10.27.24,15.18-3.57,7.39-12.6,8.37-16.4,1.89-3.42-5.82-5.69-16.69.21-22A9.54,9.54,0,0,1,282.8,196.53Z" style="fill:#ffb573"></path><path d="M274.89,194.28c5.82,3.11.7,12,8.13,8.26s-.44-13-6-13.44S274.89,194.28,274.89,194.28Z" style="fill:#263238"></path><path d="M264.89,204.17l-1.49.08S264.43,205.12,264.89,204.17Z" style="fill:#263238"></path><path d="M268,205.32a18.3,18.3,0,0,1-.94,4.57,2.47,2.47,0,0,0,2.15-.33Z" style="fill:#ed893e"></path><path d="M286.33,202.69a5.14,5.14,0,0,1-1.73,3.76c-1.37,1.1-2.84-.38-3.12-2.39-.25-1.81.16-4.57,1.85-4.86S286.41,200.77,286.33,202.69Z" style="fill:#ffb573"></path><path d="M272.71,202.39c.17.6,0,1.2-.36,1.33s-.82-.24-1-.84,0-1.2.36-1.34S272.54,201.79,272.71,202.39Zm-8,1.81c-.37.13-.54.73-.37,1.33s.62,1,1,.84.54-.73.37-1.33S265.09,204.06,264.72,204.2Zm10.83,3.36a.17.17,0,1,0-.33-.09,5.24,5.24,0,0,1-3.17,3.2.2.2,0,0,0-.11.24.16.16,0,0,0,.21.12,6.32,6.32,0,0,0,.94-.44A5.42,5.42,0,0,0,275.55,207.56Zm-2.11-9.26a.36.36,0,0,0-.17-.49,3.34,3.34,0,0,0-3.2.21.41.41,0,0,0-.11.52.34.34,0,0,0,.49.1,2.65,2.65,0,0,1,2.53-.14.34.34,0,0,0,.28,0A.35.35,0,0,0,273.44,198.3Zm-10.54,3.95a3.06,3.06,0,0,1,1.78-2,.39.39,0,0,0,.25-.46.33.33,0,0,0-.43-.25,3.81,3.81,0,0,0-2.26,2.53.36.36,0,0,0,.22.46.34.34,0,0,0,.26,0A.36.36,0,0,0,262.9,202.25Z" style="fill:#263238"></path><path d="M271.9,201.52l-1.5.08S271.43,202.47,271.9,201.52Z" style="fill:#263238"></path><path d="M270.19,192.36s6,8,13.07,6.1,1.14-11-9.25-10.62-13.3,9.27-13.05,11.41a5.79,5.79,0,0,0,1.94,3.88S263.38,195.62,270.19,192.36Z" style="fill:#263238"></path><path d="M301.65,267.36h0a.45.45,0,0,1-.43-.46c0-1,1-24.24,8.89-25.24a.46.46,0,0,1,.5.39.44.44,0,0,1-.39.49c-7.17.91-8.11,24.16-8.11,24.39A.45.45,0,0,1,301.65,267.36Z" style="fill:#263238"></path><path d="M319,239.57A107,107,0,0,0,303.2,220a4.69,4.69,0,0,0-6.67,6.59c4.71,5,9.73,10.39,14.1,15.77a21.65,21.65,0,0,1-4.18,2.67c-2.93,1.54-6.15,2.9-9.26,4.17a4.82,4.82,0,0,0-1-.75l-3.49-2.08a2.68,2.68,0,0,0-2.46-.16l-2.12.94a2.59,2.59,0,0,0-1.58,2.33l0,2.86a2.25,2.25,0,0,0,2.3,2.22h1.44a18.9,18.9,0,0,0,7-.63,2.41,2.41,0,0,0,.38,0C304.87,253.11,322.5,250.12,319,239.57Zm-7.64,2c0,.07-.1.13-.15.2C311.26,241.63,311.31,241.55,311.38,241.54Z" style="fill:#ffb573"></path><path d="M335.71,281.6l-30.2,5.77a1.55,1.55,0,0,1-1.81-1.24L300,266.92a1.33,1.33,0,0,1,0-.74,1.55,1.55,0,0,1,1.19-1.07l30.19-5.76a1.56,1.56,0,0,1,1.69.85,1.71,1.71,0,0,1,.13.38l3.66,19.21A1.54,1.54,0,0,1,335.71,281.6Z" style="fill:#263238"></path><path d="M335.71,281.6l-30.2,5.77a1.54,1.54,0,0,1-1.81-1.24L300,266.92a1.33,1.33,0,0,1,0-.74l2.31,7a1.8,1.8,0,0,0,2,1.21l28.35-4.79a1.36,1.36,0,0,0,1.13-1.46l-.74-7.92a1.63,1.63,0,0,1,.13.39l3.66,19.2A1.54,1.54,0,0,1,335.71,281.6Z" style="opacity:0.4"></path><path d="M331.64,260.87a.46.46,0,0,1-.4-.24c-4.93-9.69-13.75-19-21-18.09a.43.43,0,0,1-.49-.38.45.45,0,0,1,.38-.5c7.7-1,16.86,8.61,21.93,18.57a.44.44,0,0,1-.19.59A.39.39,0,0,1,331.64,260.87Z" style="fill:#263238"></path><path d="M318,269.27h2.72a0,0,0,0,1,0,0v5.38a.58.58,0,0,1-.58.58h-1.55a.58.58,0,0,1-.58-.58v-5.38A0,0,0,0,1,318,269.27Z" transform="translate(-42.86 60.34) rotate(-10.12)" style="fill:#263238"></path><path d="M318,269.27h2.72a0,0,0,0,1,0,0v5.38a.58.58,0,0,1-.58.58h-1.55a.58.58,0,0,1-.58-.58v-5.38A0,0,0,0,1,318,269.27Z" transform="translate(-42.86 60.34) rotate(-10.12)" style="fill:#fff;opacity:0.1"></path><rect x="317.74" y="272.53" width="3.77" height="1.87" rx="0.28" transform="translate(-43.07 60.4) rotate(-10.12)" style="fill:#263238"></rect><path d="M281.6,230.43c.3-.34,7.2-8.34,7-11.35a.23.23,0,0,0-.26-.23.24.24,0,0,0-.23.26c.16,2.58-5.73,9.63-6.75,10.82-2.29-1.7-3.12-5.39-3.13-5.43a.25.25,0,0,0-.49.1c0,.17.92,4.12,3.52,5.88h0l-.57,1.76.72.78.72-.88-.58-1.69Z" style="fill:#fff"></path><polygon points="281.41 230.31 282.01 232.1 281.41 232.82 280.85 232.2 281.41 230.31" style="fill:#9C1137"></polygon></g></svg>
